<?xml version="1.0" encoding="utf-8"?>
<!-- Generator: Adobe Illustrator 16.0.0, SVG Export Plug-In . SVG Version: 6.00 Build 0)  -->
<!DOCTYPE svg PUBLIC "-//W3C//DTD SVG 1.1//EN" "http://www.w3.org/Graphics/SVG/1.1/DTD/svg11.dtd">
<svg version="1.1" id="Layer_1" xmlns="http://www.w3.org/2000/svg" xmlns:xlink="http://www.w3.org/1999/xlink" x="0px" y="0px"
	 width="335.821px" height="375.789px" viewBox="0 0 335.821 375.789" enable-background="new 0 0 335.821 375.789"
	 xml:space="preserve">
<g>
	<g>
		<g>
			<path fill="#A5D38D" d="M259.613,291.359c-2.883,0-5.592-1.121-7.631-3.16c-1.475-1.475-3.432-2.283-5.51-2.283h-0.004
				c-2.076,0-4.031,0.811-5.506,2.281c-4.209,4.207-11.057,4.209-15.264,0.002c-1.473-1.475-3.428-2.283-5.51-2.283l0,0
				c-2.082,0-4.037,0.811-5.51,2.281c-4.207,4.207-11.057,4.209-15.264,0.002c-3.037-3.037-7.979-3.039-11.018-0.002
				c-4.209,4.207-11.059,4.209-15.268,0.002c-1.471-1.475-3.426-2.283-5.508-2.283l0,0c-2.082,0-4.037,0.811-5.51,2.281
				c-4.207,4.207-11.053,4.209-15.264,0.002c-1.473-1.473-3.43-2.283-5.51-2.283l0,0c-2.082,0-4.037,0.811-5.51,2.281
				c-2.039,2.039-4.75,3.162-7.633,3.162s-5.592-1.123-7.629-3.16c-1.471-1.473-3.428-2.283-5.508-2.283h-0.002
				c-2.08,0-4.035,0.812-5.508,2.281c-2.039,2.039-4.75,3.162-7.635,3.162c-2.883,0-5.592-1.121-7.631-3.16
				c-3.039-3.037-7.981-3.037-11.02-0.002c-2.038,2.039-4.748,3.162-7.631,3.162s-5.594-1.121-7.631-3.16
				c-0.586-0.586-0.586-1.535,0-2.121s1.535-0.586,2.121,0c1.472,1.471,3.429,2.281,5.51,2.281c2.08,0,4.037-0.812,5.51-2.283
				c4.209-4.205,11.057-4.205,15.262,0.002c1.473,1.471,3.428,2.281,5.51,2.281s4.039-0.812,5.514-2.283
				c2.035-2.037,4.746-3.16,7.629-3.16h0.002c2.883,0,5.592,1.123,7.631,3.162c1.471,1.471,3.426,2.281,5.506,2.281
				c2.082,0,4.039-0.812,5.512-2.283c2.039-2.037,4.748-3.16,7.631-3.16l0,0c2.885,0,5.596,1.123,7.631,3.162
				c3.035,3.037,7.98,3.035,11.021-0.002c2.037-2.037,4.748-3.16,7.629-3.16h0.002c2.883,0,5.592,1.123,7.629,3.162
				c3.039,3.039,7.982,3.035,11.021-0.002c4.205-4.207,11.053-4.207,15.26,0.002c1.471,1.471,3.428,2.281,5.51,2.281
				s4.039-0.812,5.514-2.283c2.033-2.037,4.746-3.16,7.629-3.16l0,0c2.883,0,5.594,1.123,7.631,3.162
				c3.037,3.039,7.979,3.035,11.02-0.002c2.037-2.037,4.746-3.16,7.627-3.16h0.002c2.885,0,5.596,1.123,7.633,3.162
				c1.473,1.471,3.428,2.281,5.51,2.281c2.08,0,4.037-0.812,5.51-2.283c4.207-4.205,11.053-4.207,15.262,0.002
				c0.586,0.586,0.586,1.535,0,2.121s-1.533,0.586-2.121,0c-3.037-3.039-7.98-3.039-11.02-0.002
				C265.205,290.234,262.496,291.359,259.613,291.359z"/>
		</g>
	</g>
	<g enable-background="new    ">
		<path fill="#A5D38D" d="M64.777,340.24l1.25-0.182l5.325-15.217h3.595l5.289,15.217l1.25,0.182v2.104h-5.961v-2.104l1.213-0.219
			l-0.77-2.402h-5.674l-0.77,2.402l1.215,0.219v2.104h-5.963V340.24z M71.123,335.035h4.016l-1.971-6.166h-0.072L71.123,335.035z"/>
		<path fill="#A5D38D" d="M88.96,324.843v2.115l-1.875,0.359v9.135c0,1.152,0.311,2.018,0.932,2.59
			c0.621,0.574,1.473,0.861,2.555,0.861c1.098,0,1.959-0.285,2.584-0.855c0.625-0.568,0.938-1.434,0.938-2.596v-9.137l-1.861-0.359
			v-2.115h7.248v2.115l-1.875,0.359v9.137c0,1.963-0.648,3.477-1.941,4.543c-1.295,1.064-2.992,1.598-5.09,1.598
			c-2.092,0-3.781-0.531-5.066-1.598c-1.286-1.066-1.93-2.58-1.93-4.543v-9.137l-1.862-0.359v-2.115h1.862h3.51L88.96,324.843
			L88.96,324.843z"/>
		<path fill="#A5D38D" d="M119.873,324.843v2.115l-1.875,0.359v9.771c0,1.691-0.551,3.031-1.652,4.02
			c-1.102,0.99-2.492,1.484-4.176,1.484c-1.828,0-3.271-0.443-4.34-1.334c-1.064-0.889-1.578-2.199-1.537-3.93l0.023-0.072h3.414
			c0,0.922,0.221,1.594,0.662,2.014c0.438,0.42,1.031,0.633,1.777,0.633c0.648,0,1.199-0.25,1.652-0.754
			c0.453-0.5,0.678-1.188,0.678-2.061v-9.771l-1.875-0.359v-2.115h5.373H119.873z"/>
		<path fill="#A5D38D" d="M127.914,324.843v2.115l-1.875,0.359v9.135c0,1.152,0.312,2.018,0.932,2.59
			c0.621,0.574,1.475,0.861,2.557,0.861c1.098,0,1.959-0.285,2.584-0.855c0.625-0.568,0.938-1.434,0.938-2.596v-9.137l-1.861-0.359
			v-2.115h7.248v2.115l-1.875,0.359v9.137c0,1.963-0.648,3.477-1.941,4.543c-1.295,1.064-2.992,1.598-5.09,1.598
			c-2.092,0-3.781-0.531-5.066-1.598c-1.287-1.066-1.93-2.58-1.93-4.543v-9.137l-1.863-0.359v-2.115h1.863h3.51L127.914,324.843
			L127.914,324.843z"/>
		<path fill="#A5D38D" d="M152.759,330.431h-2.633l-0.457-2.402c-0.305-0.191-0.748-0.359-1.334-0.506
			c-0.584-0.145-1.205-0.217-1.861-0.217c-0.963,0-1.705,0.203-2.229,0.607c-0.525,0.404-0.787,0.928-0.787,1.566
			c0,0.596,0.273,1.08,0.822,1.461c0.549,0.383,1.498,0.783,2.844,1.209c1.93,0.535,3.396,1.244,4.395,2.127
			s1.494,2.039,1.494,3.475c0,1.498-0.594,2.68-1.777,3.545c-1.188,0.865-2.75,1.299-4.689,1.299c-1.385,0-2.637-0.221-3.756-0.66
			c-1.117-0.439-2.049-1.051-2.793-1.828v-3.652h2.715l0.373,2.486c0.355,0.289,0.832,0.527,1.438,0.717
			c0.604,0.188,1.279,0.281,2.023,0.281c0.961,0,1.693-0.195,2.193-0.59c0.502-0.393,0.752-0.916,0.752-1.572
			c0-0.674-0.238-1.215-0.715-1.623c-0.479-0.408-1.312-0.793-2.506-1.152c-2.076-0.604-3.646-1.314-4.711-2.141
			c-1.066-0.824-1.602-1.955-1.602-3.391c0-1.418,0.604-2.578,1.803-3.479c1.203-0.902,2.715-1.365,4.531-1.391
			c1.346,0,2.572,0.205,3.678,0.613s2.035,0.953,2.789,1.635V330.431L152.759,330.431z"/>
		<path fill="#A5D38D" d="M185.789,330.431h-2.633l-0.457-2.402c-0.305-0.191-0.748-0.359-1.334-0.506
			c-0.584-0.145-1.205-0.217-1.863-0.217c-0.961,0-1.705,0.203-2.229,0.607c-0.525,0.404-0.787,0.928-0.787,1.566
			c0,0.596,0.273,1.08,0.824,1.461c0.549,0.383,1.494,0.783,2.842,1.209c1.932,0.535,3.396,1.244,4.393,2.127
			c0.998,0.883,1.496,2.039,1.496,3.475c0,1.498-0.592,2.68-1.777,3.545s-2.75,1.299-4.688,1.299c-1.387,0-2.639-0.221-3.756-0.66
			c-1.119-0.439-2.049-1.051-2.795-1.828v-3.652h2.717l0.373,2.486c0.352,0.289,0.83,0.527,1.436,0.717
			c0.605,0.188,1.279,0.281,2.025,0.281c0.961,0,1.691-0.195,2.193-0.59c0.5-0.393,0.75-0.916,0.75-1.572
			c0-0.674-0.238-1.215-0.717-1.623c-0.477-0.408-1.311-0.793-2.506-1.152c-2.074-0.604-3.645-1.314-4.711-2.141
			c-1.064-0.826-1.598-1.955-1.598-3.391c0-1.418,0.6-2.578,1.803-3.479c1.201-0.902,2.711-1.365,4.531-1.391
			c1.346,0,2.572,0.205,3.678,0.613s2.035,0.953,2.789,1.635V330.431L185.789,330.431z"/>
		<path fill="#A5D38D" d="M198.72,334.65h-5.924v5h5.648l0.156-2.094h2.668v4.785h-13.848v-2.104l1.863-0.361v-12.561l-1.863-0.359
			v-2.115h1.863h11.959v4.797h-2.691l-0.154-2.092h-5.604v4.398h5.926V334.65L198.72,334.65z"/>
		<path fill="#A5D38D" d="M202.964,340.24l1.25-0.182l5.324-15.217h3.594l5.289,15.217l1.25,0.182v2.104h-5.961v-2.104l1.213-0.219
			l-0.77-2.402h-5.672l-0.771,2.402l1.213,0.219v2.104h-5.961L202.964,340.24L202.964,340.24z M209.31,335.035h4.016l-1.973-6.166
			h-0.072L209.31,335.035z"/>
		<path fill="#A5D38D" d="M234.431,324.843v4.662h-2.691l-0.145-1.959h-3.223v12.332l1.875,0.361v2.104h-7.26v-2.104l1.875-0.361
			v-12.332h-3.209l-0.146,1.959h-2.68v-4.662H234.431z"/>
		<path fill="#A5D38D" d="M251.173,324.843v4.662h-2.689l-0.146-1.959h-3.221v12.332l1.875,0.361v2.104h-7.26v-2.104l1.875-0.361
			v-12.332h-3.209l-0.146,1.959h-2.68v-4.662H251.173z"/>
		<path fill="#A5D38D" d="M252.316,342.343v-2.104l1.861-0.361v-12.561l-1.861-0.359v-2.115h1.861h3.512h1.875v2.115l-1.875,0.359
			v12.33h4.938l0.168-2.197h2.682v4.893H252.316z"/>
		<path fill="#A5D38D" d="M278.037,334.65h-5.926v5h5.648l0.156-2.094h2.668v4.785h-13.848v-2.104l1.863-0.361v-12.561l-1.863-0.359
			v-2.115h1.863h11.961v4.797h-2.693l-0.156-2.092h-5.602v4.398h5.926L278.037,334.65L278.037,334.65z"/>
	</g>
	<g enable-background="new    ">
		<path fill="#A5D38D" d="M6.393,356.498l-1.334,0.24l3.101,10.49l0.217,0.961h0.072l0.203-0.938l3.113-10.518l-1.322-0.238v-2.115
			h6.395v2.115l-1.467,0.189l-5.155,15.193H6.611l-5.168-15.191L0,356.498v-2.115h6.395L6.393,356.498L6.393,356.498z"/>
		<path fill="#A5D38D" d="M29.207,364.189h-5.926v5h5.649l0.155-2.092h2.668v4.785H17.908v-2.104l1.862-0.361v-12.561l-1.862-0.357
			v-2.115h1.862h11.959v4.795h-2.692l-0.155-2.092h-5.601v4.4h5.924L29.207,364.189L29.207,364.189z"/>
		<path fill="#A5D38D" d="M41.49,354.382c1.987,0,3.547,0.455,4.676,1.363c1.131,0.91,1.695,2.166,1.695,3.768
			c0,0.883-0.236,1.646-0.709,2.297c-0.474,0.65-1.166,1.176-2.08,1.574c1.034,0.305,1.777,0.812,2.229,1.521
			s0.679,1.588,0.679,2.639v0.889c0,0.387,0.076,0.686,0.229,0.896c0.152,0.213,0.404,0.338,0.756,0.379l0.434,0.061v2.115h-1.814
			c-1.146,0-1.951-0.309-2.416-0.926s-0.697-1.414-0.697-2.395v-0.998c0-0.848-0.227-1.516-0.68-2
			c-0.453-0.482-1.092-0.738-1.916-0.764h-2.873v4.615l1.875,0.359v2.105h-7.248v-2.105l1.863-0.359v-12.561l-1.863-0.357v-2.115
			h1.863L41.49,354.382L41.49,354.382z M39.001,362.097h2.429c0.978,0,1.711-0.207,2.2-0.625c0.488-0.416,0.732-1.018,0.732-1.803
			s-0.242-1.412-0.727-1.881s-1.2-0.703-2.146-0.703h-2.488V362.097z"/>
		<path fill="#A5D38D" d="M67.44,358.937l-0.071-0.012l-4.688,12.957h-2.356l-4.664-12.91l-0.071,0.014l0.337,7.682v2.752
			l1.875,0.359v2.105h-7.248v-2.105l1.863-0.359v-12.562l-1.863-0.357v-2.115h1.863h4.578l4.459,12.896h0.072l4.495-12.896h6.466
			v2.115l-1.875,0.357v12.562l1.875,0.361v2.104h-7.248v-2.104l1.863-0.361v-2.752L67.44,358.937z"/>
		<path fill="#A5D38D" d="M73.726,356.498v-2.115h7.248v2.115l-1.875,0.357v12.562l1.875,0.359v2.104h-7.248v-2.104l1.875-0.359
			v-12.561L73.726,356.498z"/>
		<path fill="#A5D38D" d="M82.307,371.882v-2.104l1.862-0.361v-12.561l-1.862-0.357v-2.115h1.862h3.511h1.876v2.115l-1.876,0.357
			v12.332h4.94l0.168-2.197h2.68v4.893L82.307,371.882L82.307,371.882z"/>
		<path fill="#A5D38D" d="M96.732,371.882v-2.104l1.861-0.361v-12.561l-1.861-0.357v-2.115h1.861h3.512h1.875v2.115l-1.875,0.357
			v12.332h4.938l0.168-2.197h2.684v4.893L96.732,371.882L96.732,371.882z"/>
		<path fill="#A5D38D" d="M111.142,356.498v-2.115h7.248v2.115l-1.875,0.357v12.562l1.875,0.359v2.104h-7.248v-2.104l1.875-0.359
			v-12.561L111.142,356.498z"/>
		<path fill="#A5D38D" d="M135.722,363.263c0,2.564-0.732,4.686-2.199,6.359c-1.469,1.674-3.387,2.512-5.758,2.512
			c-2.363,0-4.271-0.838-5.727-2.512c-1.455-1.676-2.182-3.795-2.182-6.359V363c0-2.549,0.725-4.664,2.176-6.346
			c1.449-1.686,3.355-2.525,5.721-2.525c2.371,0,4.291,0.842,5.764,2.525c1.471,1.682,2.205,3.797,2.205,6.346V363.263z
			 M132.224,362.976c0-1.811-0.379-3.279-1.131-4.412c-0.754-1.129-1.865-1.693-3.342-1.693c-1.475,0-2.574,0.562-3.299,1.684
			s-1.088,2.598-1.088,4.424v0.287c0,1.846,0.367,3.328,1.1,4.453c0.734,1.127,1.834,1.689,3.299,1.689
			c1.482,0,2.598-0.562,3.344-1.689c0.746-1.125,1.119-2.607,1.119-4.453L132.224,362.976L132.224,362.976z"/>
		<path fill="#A5D38D" d="M155.013,354.382v2.115l-1.875,0.357v15.025h-3.496l-7.068-11.779l-0.072,0.014v9.303l1.875,0.359v2.104
			h-7.248v-2.104l1.863-0.359v-12.561l-1.863-0.357v-2.115h1.863h3.51l7.068,11.777l0.072-0.014v-9.291l-1.875-0.357v-2.115h5.371
			L155.013,354.382L155.013,354.382z"/>
		<path fill="#A5D38D" d="M160.277,371.414c0,0.814-0.23,1.682-0.691,2.596s-1.021,1.662-1.688,2.248l-1.73-0.938
			c0.312-0.562,0.553-1.143,0.723-1.736c0.168-0.6,0.252-1.266,0.252-2.002v-2.621h3.148L160.277,371.414z"/>
		<path fill="#A5D38D" d="M182.562,360.283h-2.609l-0.359-2.332c-0.346-0.344-0.777-0.617-1.305-0.816
			c-0.523-0.201-1.143-0.301-1.855-0.301c-1.521,0-2.693,0.553-3.518,1.658c-0.822,1.104-1.23,2.549-1.23,4.328v0.611
			c0,1.777,0.408,3.227,1.227,4.338c0.818,1.113,1.971,1.674,3.461,1.674c0.689,0,1.32-0.104,1.895-0.303
			c0.57-0.199,1.016-0.473,1.326-0.816l0.359-2.332h2.609v3.463c-0.705,0.814-1.605,1.467-2.699,1.953
			c-1.094,0.482-2.318,0.727-3.672,0.727c-2.35,0-4.271-0.812-5.771-2.438c-1.5-1.627-2.248-3.717-2.248-6.264v-0.59
			c0-2.539,0.746-4.627,2.236-6.262c1.49-1.637,3.418-2.453,5.781-2.453c1.354,0,2.576,0.248,3.666,0.74s1.992,1.145,2.705,1.951
			v3.463H182.562L182.562,360.283z"/>
		<path fill="#A5D38D" d="M183.992,369.779l1.25-0.182l5.324-15.217h3.594l5.289,15.217l1.25,0.182v2.104h-5.961v-2.104l1.213-0.219
			l-0.771-2.402h-5.672l-0.77,2.402l1.215,0.219v2.104h-5.963L183.992,369.779L183.992,369.779z M190.337,364.574h4.018
			l-1.973-6.166h-0.07L190.337,364.574z"/>
		<path fill="#A5D38D" d="M210.181,354.382c2.004,0,3.584,0.514,4.74,1.543c1.158,1.031,1.738,2.379,1.738,4.045
			c0,1.676-0.58,3.021-1.738,4.039c-1.156,1.018-2.736,1.525-4.74,1.525h-2.955v3.883l1.875,0.361v2.104h-7.248v-2.104l1.861-0.361
			v-12.561l-1.861-0.357v-2.115h1.861L210.181,354.382L210.181,354.382z M207.226,362.832h2.955c0.979,0,1.717-0.27,2.219-0.799
			c0.5-0.533,0.75-1.213,0.75-2.037c0-0.842-0.25-1.537-0.75-2.086c-0.502-0.551-1.24-0.824-2.219-0.824h-2.955V362.832z"/>
		<path fill="#A5D38D" d="M217.767,356.498v-2.115h7.244v2.115l-1.875,0.357v12.562l1.875,0.359v2.104h-7.244v-2.104l1.875-0.359
			v-12.561L217.767,356.498z"/>
		<path fill="#A5D38D" d="M241.757,354.382v4.662h-2.691l-0.145-1.959h-3.223v12.332l1.875,0.361v2.104h-7.26v-2.104l1.875-0.361
			v-12.332h-3.209l-0.146,1.959h-2.68v-4.662H241.757z"/>
		<path fill="#A5D38D" d="M258.56,363.263c0,2.564-0.732,4.686-2.199,6.359c-1.467,1.672-3.385,2.512-5.758,2.512
			c-2.363,0-4.271-0.838-5.729-2.512c-1.455-1.676-2.182-3.795-2.182-6.359V363c0-2.549,0.725-4.664,2.176-6.346
			c1.449-1.686,3.357-2.525,5.721-2.525c2.371,0,4.293,0.842,5.766,2.525c1.471,1.682,2.205,3.797,2.205,6.346V363.263z
			 M255.062,362.976c0-1.811-0.377-3.279-1.129-4.412c-0.756-1.129-1.867-1.693-3.344-1.693c-1.475,0-2.572,0.562-3.299,1.684
			s-1.088,2.598-1.088,4.424v0.287c0,1.846,0.367,3.328,1.1,4.453c0.732,1.127,1.832,1.689,3.301,1.689
			c1.48,0,2.596-0.562,3.342-1.689c0.746-1.125,1.117-2.607,1.117-4.453V362.976z"/>
		<path fill="#A5D38D" d="M259.966,371.882v-2.104l1.863-0.361v-12.561l-1.863-0.357v-2.115h1.863h3.51h1.875v2.115l-1.875,0.357
			v12.332h4.939l0.168-2.197h2.682v4.893L259.966,371.882L259.966,371.882z"/>
		<path fill="#A5D38D" d="M280.423,356.498v-2.115h7.248v2.115l-1.875,0.357v5.051h7.141v-5.051l-1.875-0.357v-2.115h1.875h3.498
			h1.875v2.115l-1.875,0.357v12.562l1.875,0.359v2.104h-7.248v-2.104l1.875-0.359v-4.809h-7.141v4.809l1.875,0.359v2.104h-7.248
			v-2.104l1.863-0.359v-12.561L280.423,356.498z"/>
		<path fill="#A5D38D" d="M299.654,356.498v-2.115h7.248v2.115l-1.875,0.357v12.562l1.875,0.359v2.104h-7.248v-2.104l1.875-0.359
			v-12.561L299.654,356.498z"/>
		<path fill="#A5D38D" d="M308.236,371.882v-2.104l1.863-0.361v-12.561l-1.863-0.357v-2.115h1.863h3.51h1.875v2.115l-1.875,0.357
			v12.332h4.938l0.168-2.197h2.684v4.893L308.236,371.882L308.236,371.882z"/>
		<path fill="#A5D38D" d="M322.66,371.882v-2.104l1.863-0.361v-12.561l-1.863-0.357v-2.115h1.863h3.51h1.875v2.115l-1.875,0.357
			v12.332h4.938l0.168-2.197h2.684v4.893L322.66,371.882L322.66,371.882z"/>
	</g>
	<g>
		<polygon fill="#A5D38D" points="166.841,333.607 164.199,338.667 161.558,333.607 164.199,328.546 		"/>
	</g>
	<g>
		<g>
			<path fill="#A5D38D" d="M167.365,107.946c0.723-3.328,1.488-6.736,2.283-10.148c1.098-4.871,1.525-8.051,1.275-9.449
				c-0.133-0.744-0.5-0.844-0.838-0.844c-0.1,0-0.205,0.012-0.322,0.031c-3.312,0.594-7.117,4.635-11.312,12.014
				c-2.756,4.957-5.129,10.189-7.051,15.555c5.789,1.406,10.715,3.967,14.66,7.613C166.05,117.94,166.49,112.976,167.365,107.946z"
				/>
		</g>
		<g>
			<path fill="#A5D38D" d="M133.515,204.957c-4.629,5.84-5.316,10.178-5.316,12.244c0,2.311,0.879,2.311,1.168,2.311
				c1.416,0,5.641-6.324,13.277-23.979C141.169,196.544,138.199,199.039,133.515,204.957z"/>
		</g>
		<g>
			<path fill="#A5D38D" d="M242.933,112.157c-6.818-19.781-14.723-39.189-21.066-59.133c-5.262-16.533-10.186-34.479-8.004-51.982
				c0.094-0.223,0.098-0.439,0.045-0.631c-0.041-0.605-0.557-0.895-1.098-0.871c-0.41-0.047-0.844,0.096-1.137,0.527
				c-20.094,29.824-47.193,54.271-70.936,81.074c-21.758,24.57-43.914,53.176-48.203,86.756
				c-3.486,27.309,4.832,58.178,30.969,71.35c15.098,7.604,32.895,8.043,49.35,6.217c16.318-1.812,32.895-5.686,47.73-12.855
				c10.33-4.988,19.619-12.154,26.125-21.678c5.758-8.424,8.605-18.402,9.533-28.479
				C258.441,158.634,250.585,134.364,242.933,112.157z M177.16,126.239c0.119-0.678,0.246-1.4,0.373-2.191l1.35-5.801
				c1.947-6.615,2.895-9.736,3.34-10.816l0.049-0.107l0.926-0.586c1.465-0.266,2.379,0.264,2.592,1.443l0.016,0.088l-0.021,0.086
				c-4.902,18.117-5.055,22.055-4.895,22.904c0.154,0.826,0.451,0.826,0.553,0.826c0.039,0,0.078-0.006,0.123-0.014
				c6.783-1.285,13.285-10.471,19.316-27.295c0.094-0.289,0.49-0.871,1.355-1.125c0.203-0.061,0.426-0.088,0.668-0.088
				c0.6,0,1.416,0.189,1.904,0.729c0.275,0.305,0.402,0.678,0.361,1.08c-0.02,0.238-1.006,3.592-2.727,9.027
				c-1.812,5.713-2.506,9.773-2.068,12.07c0.396,2.109,1.326,2.109,1.633,2.109c0.117,0,0.24-0.014,0.367-0.039
				c1.564-0.295,3.818-2.49,6.705-6.525c0.693-0.971,1.293-1.816,1.812-2.549c1.98-2.803,2.574-3.619,3.025-3.836
				c0.727-0.354,1.611-0.193,2.113,0.383c0.344,0.393,0.49,0.924,0.414,1.502c-0.211,1.549-3.361,5.779-5.219,8.164
				c-3.162,4.061-6.711,6.877-9.266,7.359c-3.201,0.604-5.227-1.09-5.965-4.98c-0.189-1.01-0.252-2.152-0.18-3.418
				c-4.652,7.062-9.463,11.104-14.318,12.021c-0.361,0.066-0.711,0.104-1.033,0.104c-2.02,0-3.281-1.273-3.762-3.795
				C176.332,130.991,176.662,129.101,177.16,126.239z M133.404,115.655c0.34-0.486,0.906-0.809,1.688-0.943
				c3.494-0.625,7.283-0.766,11.285-0.414c2.254-6.549,5.068-12.674,8.363-18.203c4.869-8.023,9.688-12.516,14.332-13.346
				c3.805-0.689,6.104,0.951,6.793,4.801c0.434,2.426,0.068,6.43-1.084,11.902c-2.371,11.451-2.992,14.512-3.07,14.953l-0.012,0.064
				c-0.953,6.074-1.068,11.209-0.344,15.264c0.119,0.68,0.422,1.76,0.922,3.301c0.502,1.539,0.83,2.734,0.979,3.561
				c0.143,0.787,0.018,1.439-0.377,1.939c-0.377,0.479-1.002,0.807-1.854,0.959c-2.189,0.391-3.57-0.85-4.066-3.615
				c-0.107-0.617-0.197-1.504-0.262-2.637c-0.064-1.143-0.127-1.867-0.189-2.225c-0.385-2.141-2.812-4.506-7.229-7.021
				c-3.539-2.062-6.734-3.443-9.504-4.119c-0.771,2.551-1.543,6.219-2.293,10.912c-0.854,5.158-1.6,8.914-2.207,11.156
				c-0.359,1.225-0.979,1.916-1.836,2.066c-0.262,0.047-0.504,0.07-0.73,0.07c-1.258,0-2.051-0.703-2.289-2.029
				c-0.309-1.752,0.195-5.561,1.549-11.658c0.965-4.572,1.916-8.355,2.842-11.26c-2.092,0.066-4.18,0.133-6.268,0.201
				c-0.314,0.014-0.621,0.02-0.91,0.02l0,0c-2.83,0-4.311-0.586-4.523-1.793C132.964,116.786,133.066,116.144,133.404,115.655z
				 M228.791,181.655c-0.24,1.068-1.059,1.736-2.135,1.736c-0.783,0-1.566-0.369-2.043-0.967c-0.447-0.557-0.604-1.27-0.438-2.006
				c0.324-1.459,0.137-2.604-0.588-3.51c-1.27-1.586-4.186-2.391-8.67-2.391c-4.611,0-13.312,0.889-28.578,5.105l-0.309,0.086
				c-9.58,2.639-19.201,5.785-28.596,9.354c-0.922,0.348-1.951,0.721-3.033,1.107c-1.396,0.502-2.84,1.023-4.273,1.576
				c-2.436,5.898-4.943,11.33-7.467,16.139c-5.848,11.072-10.52,16.457-14.287,16.457c-3.164,0-4.768-2.578-4.768-7.662
				c0-2.295,1.256-5.65,3.842-10.264c2.588-4.738,5.412-8.631,8.396-11.562c1.393-1.393,2.717-2.445,3.932-3.133
				c1.51-1.131,3.354-2.189,5.588-3.213c8.215-21.081,12.381-33.764,12.381-37.694c0-3.068-1.377-3.068-1.83-3.068
				c-3.037,0-6.158,4.691-9.268,13.943c-2.775,8.344-4.072,14.688-3.855,18.859l0.012,0.188c0.002,1.229-0.977,2.191-2.182,2.191
				c-0.145,0-0.289-0.018-0.451-0.053l-0.082-0.014c-0.057-0.016-0.104-0.029-0.152-0.053l-0.189-0.064
				c-1.305-0.473-1.955-2.021-1.955-4.73c0-5.578,1.73-12.537,5.146-20.684c4.006-9.572,8.482-14.426,13.312-14.426
				c4.148,0,6.252,2.74,6.252,8.146c0,4.203-2.088,12.375-6.207,24.289c-1.18,3.447-2.441,6.936-3.764,10.373
				c0.402-0.143,0.803-0.281,1.203-0.422c1.227-0.426,2.428-0.846,3.576-1.271c11.834-4.408,22.518-7.773,32.658-10.287l0.629-0.156
				c4.562-1.139,15.236-3.801,24.188-3.801c6.334,0,10.631,1.354,12.768,4.021C229.105,175.755,229.523,178.394,228.791,181.655z
				 M234.099,150.091c-2.107,3.521-4.281,6.488-8.053,9.514c-3.553,2.861-7.32,4.703-11.203,5.479
				c-1.844,0.371-3.422,0.559-4.686,0.559c-2.553-0.002-4-0.768-4.301-2.273c-0.168-0.832-0.07-1.531,0.291-2.072
				c0.383-0.574,1.053-0.959,1.994-1.146c0.934-0.188,2.359-0.303,4.244-0.34c1.832-0.035,3.217-0.145,4.113-0.322
				c1.166-0.23,2.18-0.701,3.006-1.4c0.193-1.287,0.025-3.277-0.504-5.922c-0.67-3.346-1.746-5.822-3.352-8.791
				c-0.541,0.975-1.203,1.969-2.004,3.17c-0.635,0.947-1.352,2.021-2.164,3.324c-1.852,3.027-2.539,4.113-3.877,5.965
				c-0.301,0.414-0.588,0.83-0.885,1.258c-1.012,1.463-2.152,3.121-4.109,5.154c-3.834,3.98-6.85,6.148-9.211,6.623
				c-3.197,0.633-5.236-1.041-6.016-4.922c-0.199-1.012-0.271-2.154-0.213-3.412c-4.586,7.105-9.354,11.193-14.195,12.16
				c-0.379,0.074-0.74,0.113-1.078,0.113c-1.994,0-3.26-1.266-3.758-3.758c-0.396-1.986-0.275-4.477,0.355-7.418
				c-1.514,2-2.189,2.387-2.621,2.471c-0.914,0.186-1.684,0.021-2.129-0.457c-0.219-0.229-0.465-0.652-0.418-1.354
				c0.051-0.768,0.66-1.818,2.135-4.361c0.65-1.125,1.467-2.537,2.465-4.32c3.221-5.867,5.062-9.359,5.465-10.383l0.043-0.109
				l0.916-0.602c1.463-0.289,2.379,0.223,2.613,1.396l0.02,0.088l-0.021,0.086c-4.275,17.043-4.895,22.025-4.658,23.205
				c0.162,0.812,0.455,0.816,0.553,0.816c0.041,0,0.084-0.004,0.127-0.014c6.773-1.354,13.184-10.6,19.053-27.48l0.062-0.129
				c0.361-0.738,1.115-1.211,1.945-1.211c0.332,0,0.619,0.092,0.855,0.18c0.438,0.162,1.348,0.795,1.359,1.727
				c0.016,0.672-0.479,2.256-1.656,6.084l-0.908,2.957c-1.752,5.73-2.406,9.799-1.949,12.094c0.416,2.086,1.332,2.094,1.639,2.094
				c0.113-0.021,0.248-0.018,0.385-0.039c1.445-0.291,3.604-2.301,7.002-6.51c1.398-1.734,2.258-3.008,2.943-4.023
				c0.244-0.361,0.461-0.688,0.668-0.98c0.857-1.275,2.018-3.215,3.613-5.893c2.959-4.979,4.088-7.352,4.414-8.084
				c-1.156-1.203-1.758-2.07-1.887-2.721c-0.207-1.035-0.041-1.896,0.496-2.561c0.518-0.641,1.387-1.086,2.58-1.326
				c0.348-0.068,0.676-0.104,0.979-0.104c1.109,0,2.525,0.475,2.98,2.744c0.146,0.762,0.162,1.625,0.043,2.574
				c3.643,4.938,5.516,8.881,6.453,13.58c0.221,1.109,0.354,2.188,0.396,3.209c0.564-0.637,1.557-1.789,3.273-3.842
				c2.697-3.18,3.4-3.768,3.762-3.93c0.234-0.104,0.486-0.16,0.75-0.16c1.061,0,1.973,0.848,2.213,2.053
				C234.56,148.933,234.433,149.53,234.099,150.091z"/>
		</g>
	</g>
</g>
</svg>
