<?xml version="1.0" encoding="utf-8"?>
<!-- Generator: Adobe Illustrator 16.0.0, SVG Export Plug-In . SVG Version: 6.00 Build 0)  -->
<!DOCTYPE svg PUBLIC "-//W3C//DTD SVG 1.1//EN" "http://www.w3.org/Graphics/SVG/1.1/DTD/svg11.dtd">
<svg version="1.1" id="Layer_1" xmlns="http://www.w3.org/2000/svg" xmlns:xlink="http://www.w3.org/1999/xlink" x="0px" y="0px"
	 width="49.576px" height="49.575px" viewBox="0 0 49.576 49.575" enable-background="new 0 0 49.576 49.575" xml:space="preserve">
<path fill="#95FF9A" d="M39.995,0H9.581C4.298,0,0,4.296,0,9.58v10.117v20.299c0,5.279,4.298,9.58,9.581,9.58h30.414
	c5.28,0,9.581-4.301,9.581-9.58V19.697V9.58C49.576,4.296,45.279,0,39.995,0z M42.743,5.714l1.096-0.004V6.8v7.312l-8.375,0.027
	l-0.028-8.402L42.743,5.714z M17.713,19.699c1.587-2.195,4.163-3.639,7.075-3.639s5.485,1.441,7.075,3.639
	c1.03,1.438,1.648,3.188,1.648,5.092c0,4.809-3.917,8.723-8.727,8.723c-4.812,0-8.729-3.914-8.729-8.723
	C16.062,22.888,16.68,21.134,17.713,19.699z M44.746,39.996c0,2.619-2.131,4.75-4.751,4.75H9.581c-2.62,0-4.751-2.131-4.751-4.75
	V19.699h7.397c-0.639,1.57-0.998,3.287-0.998,5.09c0,7.473,6.08,13.555,13.559,13.555c7.476,0,13.556-6.082,13.556-13.555
	c0-1.803-0.361-3.52-1-5.092h7.402V39.996L44.746,39.996z"/>
</svg>
