<?xml version="1.0" encoding="utf-8"?>
<!-- Generator: Adobe Illustrator 16.0.0, SVG Export Plug-In . SVG Version: 6.00 Build 0)  -->
<!DOCTYPE svg PUBLIC "-//W3C//DTD SVG 1.1//EN" "http://www.w3.org/Graphics/SVG/1.1/DTD/svg11.dtd">
<svg version="1.1" id="Layer_1" xmlns="http://www.w3.org/2000/svg" xmlns:xlink="http://www.w3.org/1999/xlink" x="0px" y="0px"
	 width="49.266px" height="40.035px" viewBox="0 0 49.266 40.035" enable-background="new 0 0 49.266 40.035" xml:space="preserve">
<path fill="#95FF9A" d="M49.265,4.74c-1.812,0.805-3.76,1.348-5.805,1.591c2.087-1.25,3.688-3.23,4.44-5.592
	c-1.953,1.156-4.113,2-6.418,2.454C39.64,1.226,37.013,0,34.106,0c-5.581,0-10.105,4.522-10.105,10.104
	c0,0.792,0.089,1.563,0.262,2.306C15.863,11.99,8.415,7.966,3.429,1.848C2.559,3.34,2.061,5.078,2.061,6.929
	c0,3.506,1.784,6.603,4.496,8.413c-1.656-0.053-3.215-0.507-4.578-1.265c-0.001,0.042-0.001,0.084-0.001,0.128
	c0,4.896,3.484,8.978,8.108,9.912c-0.848,0.229-1.741,0.354-2.663,0.354c-0.652,0-1.285-0.062-1.902-0.182
	c1.287,4.016,5.02,6.938,9.441,7.02c-3.459,2.711-7.816,4.326-12.552,4.326c-0.815,0-1.62-0.049-2.411-0.141
	c4.474,2.867,9.786,4.541,15.493,4.541c18.59,0,28.756-15.4,28.756-28.758c0-0.438-0.013-0.875-0.029-1.31
	C46.197,8.547,47.913,6.767,49.265,4.74z"/>
</svg>
